<?xml version="1.0" encoding="UTF-8" standalone="no"?>
<svg width="48px" height="38px" viewBox="0 0 48 38" version="1.1" xmlns="http://www.w3.org/2000/svg" xmlns:xlink="http://www.w3.org/1999/xlink" xmlns:sketch="http://www.bohemiancoding.com/sketch/ns">
    <!-- Generator: Sketch 3.4.3 (16618) - http://www.bohemiancoding.com/sketch -->
    <title>Untitled</title>
    <desc>Created with Sketch.</desc>
    <defs></defs>
    <g id="Page-1" stroke="none" stroke-width="1" fill="none" fill-rule="evenodd" sketch:type="MSPage">
        <g id="noun_233443_cc" sketch:type="MSLayerGroup" fill="#FFFFFF">
            <path d="M29.4,37.3 C28.9,37.3 28.4,37.1 28.1,36.8 C27.7,36.4 27.5,35.9 27.5,35.3 L27.5,27.1 C27.5,24.9 26,23 24.1,23 C22.2,23 20.7,24.8 20.7,27.1 L20.7,35.3 C20.7,35.9 20.5,36.4 20.1,36.8 C19.7,37.2 19.1,37.4 18.6,37.3 C7.7,36.2 0.7,32.3 0.7,27.4 L0.7,27.2 C0.7,13 10.9,1.1 23.3,0.6 L24.2,0.6 C37.2,0.6 47.7,12.3 47.7,26.6 L47.7,27.3 C47.7,32.2 40.7,36.1 29.8,37.2 C29.5,37.3 29.5,37.3 29.4,37.3 L29.4,37.3 Z M24,4.6 L23.3,4.6 C12.9,5 4.4,15.2 4.4,27.3 L4.4,27.5 C4.4,29.3 8.6,32.1 16.6,33.2 L16.6,27.2 C16.6,22.8 19.9,19.2 23.9,19.2 C28,19.2 31.3,22.8 31.3,27.2 L31.3,33.2 C39.3,32 43.5,29.2 43.5,27.5 L43.5,26.8 C43.6,14.5 34.8,4.6 24,4.6 L24,4.6 Z" id="Shape" sketch:type="MSShapeGroup"></path>
        </g>
    </g>
</svg>